<?xml version="1.0" encoding="utf-8"?>
<!-- Generator: Adobe Illustrator 27.9.1, SVG Export Plug-In . SVG Version: 6.00 Build 0)  -->
<svg version="1.1" id="Layer_1" xmlns="http://www.w3.org/2000/svg" xmlns:xlink="http://www.w3.org/1999/xlink" x="0px" y="0px"
	 viewBox="0 0 640.2 80" style="enable-background:new 0 0 640.2 80;" xml:space="preserve">
<style type="text/css">
	.st0{fill:#E23F13;}
	.st1{fill:url(#SVGID_1_);}
</style>
<g>
	<g>
		<g>
			<path class="st0" d="M277.6,79.8c-4.8,0-9.2-1.2-13.2-3.7c-4-2.4-7.1-5.7-9.5-9.8c-2.3-4.1-3.5-8.6-3.5-13.7
				c0-5,1.2-9.5,3.5-13.6c2.4-4.1,5.6-7.3,9.6-9.7c4.1-2.4,8.6-3.6,13.5-3.6c2.5,0,4.9,0.3,7.2,1c2.3,0.6,4.4,1.6,6.5,2.9V8.9
				l14.4-2.4V79h-14.2v-4.1C287.7,78.2,283,79.8,277.6,79.8z M280.1,67.2c2.4,0,4.5-0.4,6.5-1.2c2-0.8,3.7-2,5.2-3.5V43
				c-1.4-1.5-3.2-2.7-5.1-3.5c-2-0.8-4.2-1.2-6.5-1.2c-2.7,0-5.2,0.6-7.4,1.9c-2.2,1.2-3.9,2.9-5.1,5.1c-1.3,2.2-1.9,4.6-1.9,7.4
				c0,2.7,0.6,5.2,1.9,7.4c1.3,2.2,3,3.9,5.2,5.2C275,66.6,277.4,67.2,280.1,67.2z"/>
			<path class="st0" d="M332.2,79l-22-52.5h15.6l13.5,33.8l13.5-33.8h15.2L346.3,79H332.2z"/>
			<path class="st0" d="M388.2,79.9c-3.6,0-6.8-0.7-9.6-2.1c-2.8-1.4-5-3.3-6.7-5.8c-1.6-2.5-2.5-5.3-2.5-8.4c0-5,1.9-8.9,5.6-11.7
				c3.8-2.8,8.9-4.2,15.4-4.2c4.3,0,8.4,0.6,12.3,1.8v-3.3c0-2.8-0.9-4.9-2.6-6.4c-1.8-1.4-4.3-2.2-7.7-2.2c-2.1,0-4.4,0.3-6.9,1
				c-2.5,0.6-5.4,1.7-8.8,3.3l-5.2-10.9c4.1-1.9,8.1-3.3,11.9-4.3c3.8-1,7.6-1.4,11.5-1.4c7.1,0,12.5,1.7,16.4,5.2
				c3.9,3.4,5.8,8.3,5.8,14.6V79h-14.2v-3.5c-2.1,1.6-4.3,2.7-6.7,3.4C393.7,79.6,391.1,79.9,388.2,79.9z M383.2,63.4
				c0,1.9,0.8,3.4,2.4,4.5c1.6,1.1,3.8,1.7,6.5,1.7c2,0,3.9-0.3,5.7-0.8c1.8-0.5,3.4-1.3,5-2.4v-7.3c-1.6-0.5-3.2-0.9-4.9-1.2
				c-1.7-0.3-3.5-0.4-5.3-0.4c-3,0-5.3,0.5-7,1.6C384,60.1,383.2,61.5,383.2,63.4z"/>
			<path class="st0" d="M425.6,79V26.5H440v4.1c3.9-3.4,8.7-5.1,14.2-5.1c3.9,0,7.4,0.9,10.5,2.7c3.1,1.8,5.5,4.3,7.3,7.4
				c1.7,3.1,2.6,6.8,2.6,10.9V79h-14.4V48.6c0-3.2-0.9-5.7-2.7-7.6c-1.8-1.8-4.3-2.8-7.4-2.8c-2.2,0-4.1,0.4-5.8,1.2s-3.1,2-4.3,3.5
				v36H425.6z"/>
			<path class="st0" d="M507.3,80c-5.1,0-9.7-1.2-13.7-3.6c-4.1-2.4-7.3-5.6-9.7-9.8c-2.4-4.2-3.6-8.8-3.6-13.9
				c0-5.1,1.2-9.8,3.6-13.9c2.4-4.1,5.7-7.4,9.8-9.8c4.1-2.4,8.6-3.7,13.7-3.7c4.2,0,8.2,0.8,11.9,2.5c3.8,1.7,6.9,4,9.6,7l-8.8,9.5
				c-1.9-2.1-3.8-3.7-5.8-4.7c-2-1-4.1-1.5-6.4-1.5c-2.5,0-4.7,0.6-6.7,1.9c-2,1.2-3.6,2.9-4.7,5.1c-1.1,2.2-1.7,4.7-1.7,7.5
				c0,2.7,0.6,5.2,1.8,7.4c1.2,2.2,2.8,3.9,4.8,5.2c2,1.3,4.3,1.9,7,1.9c2.2,0,4.3-0.5,6.2-1.5c1.9-1,3.7-2.4,5.5-4.4l8.6,9.1
				c-2.7,2.9-5.8,5.2-9.5,6.9C515.2,79.2,511.4,80,507.3,80z"/>
			<path class="st0" d="M556.9,80c-5.2,0-9.9-1.2-14.1-3.6c-4.2-2.4-7.5-5.7-10-9.8c-2.5-4.1-3.7-8.7-3.7-13.8
				c0-5.1,1.2-9.7,3.6-13.8c2.4-4.1,5.6-7.4,9.6-9.8c4-2.4,8.5-3.6,13.4-3.6c5,0,9.5,1.2,13.3,3.7c3.8,2.5,6.9,5.8,9.1,10.1
				c2.3,4.3,3.4,9.1,3.4,14.5v3.8H544c0.6,1.9,1.5,3.6,2.8,5.1c1.3,1.5,2.9,2.6,4.8,3.5c1.9,0.9,3.9,1.3,6.1,1.3
				c2.2,0,4.2-0.4,6.1-1.1c1.9-0.7,3.5-1.7,4.8-3l9.5,8.7c-3.3,2.7-6.6,4.6-9.9,5.9C564.9,79.4,561.1,80,556.9,80z M543.7,47.4h23.6
				c-0.5-1.9-1.4-3.6-2.5-5.1s-2.5-2.6-4.1-3.4c-1.6-0.8-3.3-1.2-5.1-1.2c-2,0-3.7,0.4-5.3,1.2c-1.6,0.8-3,1.9-4.1,3.3
				C545,43.6,544.2,45.3,543.7,47.4z"/>
			<path class="st0" d="M611.6,79.8c-4.8,0-9.2-1.2-13.2-3.7c-4-2.4-7.1-5.7-9.5-9.8c-2.3-4.1-3.5-8.6-3.5-13.7
				c0-5,1.2-9.5,3.5-13.6c2.4-4.1,5.6-7.3,9.6-9.7c4-2.4,8.6-3.6,13.5-3.6c2.5,0,4.9,0.3,7.2,1c2.3,0.6,4.4,1.6,6.5,2.9V8.9
				l14.4-2.4V79H626v-4.1C621.8,78.2,617,79.8,611.6,79.8z M614.1,67.2c2.4,0,4.5-0.4,6.5-1.2c2-0.8,3.7-2,5.2-3.5V43
				c-1.4-1.5-3.2-2.7-5.1-3.5c-2-0.8-4.2-1.2-6.5-1.2c-2.7,0-5.2,0.6-7.4,1.9c-2.2,1.2-3.9,2.9-5.1,5.1c-1.3,2.2-1.9,4.6-1.9,7.4
				c0,2.7,0.6,5.2,1.9,7.4c1.3,2.2,3,3.9,5.2,5.2C609,66.6,611.4,67.2,614.1,67.2z"/>
		</g>
	</g>
	<g>
		<g>
			<path class="st0" d="M27.6,80c-5.2,0-9.9-1.2-14.1-3.6C9.4,74,6,70.7,3.6,66.6C1.2,62.5,0,57.9,0,52.8c0-5.1,1.2-9.8,3.6-13.9
				c2.4-4.1,5.7-7.4,9.9-9.8c4.2-2.4,8.9-3.7,14.2-3.7c5.2,0,9.8,1.2,14,3.7c4.2,2.4,7.5,5.7,10,9.8c2.5,4.1,3.7,8.7,3.7,13.9
				c0,5.1-1.2,9.8-3.7,13.9s-5.8,7.4-10,9.8C37.6,78.8,32.9,80,27.6,80z M27.7,67.1c2.5,0,4.7-0.6,6.8-1.9c2-1.3,3.6-3,4.8-5.2
				c1.2-2.2,1.8-4.6,1.8-7.4c0-2.7-0.6-5.1-1.8-7.2c-1.2-2.1-2.8-3.9-4.8-5.2c-2-1.3-4.3-2-6.8-2c-2.5,0-4.7,0.7-6.8,2
				c-2,1.3-3.6,3-4.9,5.2c-1.2,2.1-1.8,4.5-1.8,7.2c0,2.7,0.6,5.2,1.8,7.4c1.2,2.2,2.8,3.9,4.9,5.2C23,66.5,25.3,67.1,27.7,67.1z"/>
			<path class="st0" d="M61.5,79V26.5h14.7v3.9c3.9-3.3,8.6-4.9,14.1-4.9c4,0,7.5,0.9,10.5,2.7c3,1.8,5.4,4.3,7.2,7.5
				c1.8,3.2,2.6,6.9,2.6,11V79H96V48.6c0-3.1-0.9-5.6-2.7-7.5c-1.8-1.9-4.2-2.8-7.3-2.8c-2.2,0-4,0.4-5.6,1.3c-1.6,0.8-3,2-4.2,3.5
				v36H61.5z"/>
			<path class="st0" d="M144,80c-5.2,0-10-1.2-14.2-3.6c-4.2-2.4-7.5-5.7-10-9.8c-2.5-4.1-3.7-8.7-3.7-13.8c0-5.1,1.2-9.8,3.5-13.9
				c2.4-4.1,5.6-7.4,9.6-9.8c4.1-2.4,8.6-3.6,13.5-3.6c5,0,9.5,1.2,13.3,3.7c3.9,2.5,6.9,5.9,9.1,10.2c2.2,4.3,3.3,9.2,3.3,14.7v3.7
				h-37.4c0.7,1.9,1.7,3.6,3,5.1c1.3,1.5,2.8,2.6,4.7,3.4c1.8,0.8,3.8,1.2,6,1.2c2.2,0,4.3-0.4,6.1-1.1c1.9-0.7,3.4-1.7,4.7-3
				l9.7,8.8c-3.2,2.7-6.5,4.6-9.9,5.9C152,79.4,148.2,80,144,80z M130.9,47.3h23.2c-0.5-1.9-1.3-3.6-2.4-5c-1.1-1.4-2.5-2.5-4.1-3.3
				c-1.6-0.8-3.3-1.2-5.1-1.2c-1.9,0-3.6,0.4-5.2,1.2c-1.6,0.8-2.9,1.9-4,3.3C132.2,43.6,131.4,45.3,130.9,47.3z"/>
		</g>
	</g>
	<radialGradient id="SVGID_1_" cx="211.336" cy="-12.2439" r="93.1487" gradientUnits="userSpaceOnUse">
		<stop  offset="0" style="stop-color:#FCC54C"/>
		<stop  offset="0.5978" style="stop-color:#F15D22"/>
		<stop  offset="1" style="stop-color:#E23F13"/>
	</radialGradient>
	<polygon class="st1" points="254.1,78.6 211.3,0 168.5,78.6 188,78.6 211.3,35.8 234.6,78.6 254.1,78.6 254.1,78.6 	"/>
</g>
</svg>
